<?xml version="1.0" encoding="utf-8"?>
<!-- Generator: Adobe Illustrator 15.0.1, SVG Export Plug-In . SVG Version: 6.00 Build 0)  -->
<!DOCTYPE svg PUBLIC "-//W3C//DTD SVG 1.1//EN" "http://www.w3.org/Graphics/SVG/1.1/DTD/svg11.dtd">
<svg version="1.1" id="Layer_1" xmlns="http://www.w3.org/2000/svg" xmlns:xlink="http://www.w3.org/1999/xlink" x="0px" y="0px"
	 width="__W__px" height="__H__px" viewBox="0 0 __W__ __H__" enable-background="new 0 0 __W__ __H__" xml:space="preserve">
<g id="surface0" transform="" opacity="1">
	<path fill="#231F20" d="M20.848,7.266c0.113,0,0.23,0.008,0.352,0.02c0.117,0.012,0.242,0.027,0.371,0.043
		c0.047,0.004,0.129-0.016,0.246-0.066c0.121-0.051,0.266-0.137,0.441-0.258c0.168-0.098,0.312-0.211,0.434-0.34
		c0.117-0.125,0.211-0.273,0.277-0.441C23,6.148,23.043,6.023,23.102,5.844c0.059-0.176,0.125-0.398,0.203-0.676
		c0.027-0.145,0.066-0.324,0.113-0.539c0-0.145-0.043-0.258-0.133-0.332c-0.086-0.078-0.227-0.117-0.418-0.117
		c-0.16,0-0.301,0.02-0.426,0.055c-0.121,0.031-0.223,0.078-0.297,0.133c-0.176,0.207-0.328,0.387-0.457,0.547
		c-0.219,0.027-0.461,0.211-0.742,0.559s-0.418,0.637-0.418,0.867c0,0.258,0.027,0.465,0.086,0.617
		C20.668,7.113,20.746,7.215,20.848,7.266"/>
	<path fill="#231F20" d="M70.824,11.344c-0.02-0.016-0.027-0.051-0.027-0.094c0-0.207,0.141-0.531,0.426-0.969
		c0.281-0.441,0.508-0.664,0.676-0.664c0.055,0,0.094,0.023,0.121,0.066s0.039,0.098,0.039,0.168c0,0.105-0.023,0.211-0.07,0.316
		c-0.047,0.109-0.113,0.215-0.203,0.324c-0.078,0.082-0.355,0.504-0.438,0.582c-0.047,0.074-0.141,0.082-0.195,0.168
		c-0.055,0.09-0.125,0.133-0.207,0.133C70.883,11.375,70.844,11.367,70.824,11.344 M55.699,12.855
		c-0.035,0.152-0.074,0.281-0.113,0.387c-0.039,0.102-0.09,0.176-0.148,0.223c-0.109,0.129-0.223,0.27-0.344,0.41
		c-0.262,0.395-0.539,0.688-0.832,0.879c-0.297,0.195-0.621,0.293-0.973,0.293c-0.223,0-0.387-0.055-0.492-0.16
		c-0.109-0.105-0.16-0.27-0.16-0.48c0-0.117,0.02-0.258,0.055-0.426c0.039-0.168,0.102-0.371,0.188-0.609
		c0.082-0.266,0.168-0.469,0.25-0.613c0.086-0.141,0.258-0.387,0.352-0.434c0.098-0.051,0.203-0.219,0.289-0.312
		c0.141-0.207,0.254-0.211,0.363-0.387c0.066-0.105,0.34-0.18,0.414-0.258c0.074-0.07,0.129-0.109,0.168-0.117
		c0.242,0.031,0.43,0.059,0.559,0.086c0.133,0.027,0.215,0.051,0.254,0.074c0.062,0.031,0.121,0.113,0.184,0.246
		s0.129,0.316,0.195,0.543L55.699,12.855z M44.543,9.184c0.086-0.223,0.199-0.535,0.336-0.941c0.145-0.375,0.297-0.777,0.449-1.207
		c0-0.098,0.02-0.195,0.062-0.285c0.043-0.094,0.109-0.184,0.203-0.273c0.207-0.316,0.414-0.637,0.629-0.957
		c0.215-0.328,0.434-0.652,0.656-0.984C47.266,3.949,47.59,3.5,47.84,3.199c0.254-0.301,0.422-0.453,0.508-0.453
		c0.059,0,0.098,0.016,0.121,0.051c0.016,0.035,0.027,0.078,0.027,0.133c0,0.094-0.051,0.254-0.145,0.48
		c-0.094,0.23-0.238,0.539-0.43,0.918c-0.336,0.703-0.652,1.328-0.941,1.867c-0.293,0.539-0.574,0.984-0.848,1.336
		c-0.277,0.375-0.523,0.703-0.742,0.98s-0.402,0.508-0.555,0.684c-0.109,0.152-0.238,0.297-0.391,0.434l-0.059-0.055
		C44.402,9.535,44.453,9.406,44.543,9.184 M83.809,13.352c-0.48,0.48-0.879,0.863-1.199,1.148c-0.312,0.289-0.555,0.469-0.715,0.547
		l-0.078-0.102c0.16-0.477,0.312-0.91,0.453-1.301c0.141-0.398,0.277-0.734,0.406-1.02c0.156-0.449,0.285-0.84,0.391-1.176
		c0.109-0.332,0.188-0.613,0.242-0.84c0.008-0.047,0.016-0.098,0.027-0.148c0.012-0.047,0.02-0.098,0.02-0.152
		c0-0.133-0.047-0.23-0.133-0.293c-0.09-0.066-0.219-0.098-0.395-0.098c-0.262,0-0.48,0.039-0.66,0.113
		c-0.184,0.078-0.32,0.184-0.422,0.324c-0.242,0.266-0.461,0.496-0.656,0.688c-0.199,0.191-0.371,0.348-0.523,0.469
		c-0.398,0.391-0.746,0.734-1.039,1.035c-0.297,0.297-0.543,0.539-0.738,0.723c-0.246,0.207-0.469,0.383-0.66,0.52
		c-0.199,0.145-0.367,0.258-0.512,0.352l-0.059,0.012c-0.047,0-0.086-0.016-0.121-0.043c-0.035-0.035-0.051-0.086-0.051-0.164
		c0-0.344,0.113-0.848,0.344-1.512c0.23-0.668,0.344-1.152,0.344-1.449c0-0.199-0.051-0.344-0.152-0.438
		c-0.105-0.09-0.246-0.137-0.434-0.137c-0.145,0-0.289,0.039-0.434,0.117c-0.148,0.078-0.297,0.18-0.453,0.32
		c-0.25,0.27-0.469,0.496-0.656,0.691c-0.184,0.199-0.332,0.363-0.445,0.5c-0.176,0.168-0.445,0.383-0.812,0.645
		c-0.359,0.262-0.469,0.395-0.645,0.578c0.016,0.016-0.129,0.121-0.113,0.141c-0.059,0.043-0.117,0.086-0.172,0.113
		c-0.086,0.043-0.148,0.074-0.184,0.098c-0.191,0.105-0.41,0.199-0.656,0.273c-0.242,0.078-0.516,0.129-0.812,0.148
		c-0.184-0.035-0.344-0.078-0.477-0.125c-0.133-0.043-0.234-0.09-0.293-0.137c-0.109-0.062-0.191-0.152-0.246-0.277
		c-0.059-0.121-0.086-0.262-0.086-0.422c0-0.09,0.016-0.176,0.055-0.258s0.086-0.148,0.141-0.199
		c0.633-0.625,1.141-1.172,1.516-1.656c0.371-0.48,0.613-0.906,0.719-1.273l0.105-0.367c0.055-0.184,0.094-0.316,0.121-0.402
		c0.027-0.082,0.039-0.102,0.039-0.055c-0.031-0.188-0.059-0.355-0.078-0.504c-0.047-0.176-0.098-0.328-0.145-0.449
		c-0.051-0.125-0.102-0.215-0.156-0.277c-0.074-0.09-0.176-0.156-0.293-0.191c-0.117-0.039-0.273-0.062-0.465-0.062
		c-0.137,0-0.262,0.016-0.379,0.035c-0.113,0.027-0.215,0.051-0.309,0.082c-0.102,0.078-0.199,0.148-0.297,0.207
		c-0.102,0.059-0.191,0.125-0.277,0.195c-0.176,0.215-0.352,0.426-0.527,0.637S70.43,8.941,70.27,9.117
		c-0.191,0.309-0.348,0.594-0.465,0.844c-0.121,0.254-0.215,0.465-0.281,0.633c-0.062,0.168-0.117,0.324-0.168,0.473
		c-0.051,0.145-0.086,0.27-0.109,0.379c-0.008,0.152-0.023,0.301-0.043,0.453c-0.023,0.148-0.047,0.301-0.07,0.453
		c-0.223,0.176-0.242,0.387-0.387,0.551s-0.344,0.297-0.434,0.457c0.012,0.027-0.062,0.039-0.051,0.062
		c-0.043,0.035-0.086,0.074-0.129,0.102c-0.082,0.039-0.172,0.055-0.273,0.055c-0.129,0-0.246-0.055-0.348-0.172
		c-0.105-0.117-0.199-0.289-0.281-0.527c-0.137-0.406-0.285-0.844-0.438-1.32c-0.129-0.242-0.285-0.426-0.469-0.539
		s-0.395-0.172-0.633-0.172c-0.121,0-0.266,0.031-0.43,0.094c-0.164,0.059-0.348,0.141-0.555,0.25
		c-0.188,0.117-0.348,0.227-0.484,0.336c-0.137,0.102-0.254,0.207-0.355,0.305c-0.066,0.078-0.129,0.152-0.18,0.219
		c-0.047,0.07-0.09,0.121-0.117,0.148c-0.141,0.109-0.266,0.227-0.375,0.352s-0.199,0.258-0.27,0.387
		c-0.176,0.152-0.328,0.293-0.453,0.418s-0.219,0.246-0.281,0.359c-0.047,0.055-0.086,0.102-0.121,0.141
		c-0.031,0.039-0.07,0.066-0.109,0.09c-0.051-0.07-0.078-0.125-0.078-0.172c0-0.035,0.008-0.098,0.023-0.172s0.047-0.164,0.09-0.266
		c0.062-0.137,0.129-0.281,0.195-0.434c0.277-0.82,0.48-1.477,0.609-1.977c0.129-0.496,0.195-0.832,0.195-1.008
		c0-0.328-0.066-0.582-0.195-0.754s-0.332-0.258-0.609-0.258c-0.273,0-0.535,0.062-0.781,0.184
		c-0.242,0.125-0.473,0.312-0.688,0.566c-0.25,0.281-0.469,0.523-0.652,0.727s-0.34,0.367-0.461,0.5
		c-0.281,0.32-0.523,0.594-0.723,0.82c-0.199,0.223-0.367,0.414-0.504,0.566c-0.156,0.152-0.293,0.289-0.414,0.402
		s-0.344,0.43-0.395,0.492c-0.051,0.066-0.09,0.117-0.121,0.172c0.016,0.027-0.059,0.062-0.043,0.09
		c-0.047,0.031-0.098,0.074-0.133,0.098c-0.062,0.039-0.129,0.055-0.188,0.055c-0.062,0-0.113-0.02-0.152-0.062
		c-0.035-0.039-0.07-0.113-0.102-0.215c0.078-0.066,0.16-0.18,0.246-0.332c0.09-0.148,0.172-0.344,0.25-0.57
		c0.066-0.207,0.117-0.402,0.145-0.574c0.035-0.176,0.047-0.332,0.047-0.461c0-0.688-0.137-1.203-0.418-1.543
		c-0.277-0.34-0.699-0.508-1.258-0.508c-0.051,0-0.176,0.027-0.367,0.09c-0.188,0.059-0.453,0.156-0.789,0.285l-0.07-0.102
		c0.086-0.176,0.164-0.352,0.242-0.527c-0.008-0.078-0.059-0.137-0.145-0.18s-0.215-0.062-0.383-0.062
		c-0.156,0-0.297,0.031-0.426,0.09c-0.133,0.062-0.258,0.145-0.379,0.254c-0.105,0.109-0.211,0.219-0.316,0.332
		c-0.102,0.117-0.211,0.23-0.328,0.344c-0.09,0.086-0.191,0.172-0.297,0.258c-0.105,0.09-0.215,0.184-0.32,0.281
		c-0.125,0.109-0.227,0.219-0.316,0.328c-0.09,0.113-0.152,0.207-0.191,0.293c-0.328,0.289-0.602,0.539-0.824,0.742
		s-0.387,0.367-0.492,0.5l-0.77,0.738c-0.074,0.105-0.16,0.176-0.215,0.262c-0.059,0.086-0.066,0.09-0.121,0.145
		c0.004,0.008-0.242,0.09-0.238,0.098c-0.27,0.055-0.41-0.004-0.617,0.027c-0.199,0-0.371-0.051-0.512-0.156
		c-0.141-0.109-0.262-0.277-0.363-0.508c-0.008-0.035-0.039-0.16-0.102-0.375c-0.062-0.207-0.141-0.508-0.242-0.898
		c-0.051-0.215-0.121-0.383-0.207-0.504c-0.082-0.121-0.172-0.184-0.273-0.184c-0.039,0-0.09,0.012-0.148,0.031
		c-0.062,0.027-0.129,0.051-0.207,0.082l-0.402,0.172c-0.113,0.055-0.262,0.215-0.434,0.488c-0.176,0.27-0.375,0.66-0.598,1.168
		c-0.254,0.555-0.477,1.012-0.672,1.363s-0.367,0.594-0.512,0.723c-0.078,0.09-0.148,0.172-0.223,0.242
		c-0.074,0.066-0.129,0.129-0.168,0.18c-0.051,0-0.09-0.031-0.109-0.094c-0.016-0.066-0.027-0.164-0.027-0.293
		c0-0.328,0.035-0.719,0.109-1.164c0.074-0.449,0.184-0.957,0.328-1.535c0.379-0.48,0.719-0.895,1.008-1.25
		c0.289-0.352,0.527-0.645,0.711-0.883c0.375-0.477,0.668-0.863,0.879-1.16s0.34-0.508,0.387-0.629
		c0.152-0.168,0.281-0.316,0.395-0.445c0.109-0.125,0.188-0.242,0.234-0.348c0.184-0.285,0.336-0.535,0.453-0.75
		c0.121-0.219,0.219-0.402,0.293-0.547c0.16-0.258,0.301-0.496,0.414-0.711s0.211-0.387,0.285-0.52
		c0.133-0.348,0.254-0.66,0.367-0.922s0.223-0.488,0.324-0.672c0.02-0.059,0.039-0.129,0.055-0.207
		c0.016-0.074,0.027-0.168,0.035-0.273c0.016-0.086,0.035-0.168,0.059-0.254c0.02-0.086,0.059-0.152,0.113-0.207
		c0.039-0.16,0.07-0.297,0.094-0.406c0.02-0.113,0.031-0.199,0.031-0.27c0-0.312-0.047-0.551-0.137-0.711
		c-0.09-0.164-0.238-0.242-0.434-0.242c-0.055,0.016-0.039-0.121-0.094-0.121c-0.047-0.074-0.191-0.016-0.301-0.105
		c-0.113,0-0.266,0.047-0.457,0.152c-0.191,0.102-0.418,0.266-0.676,0.488c-0.285,0.242-0.566,0.508-0.844,0.797
		c-0.281,0.285-0.559,0.598-0.832,0.926C45.93,3.172,45.738,3.438,45.5,3.77c-0.238,0.324-0.512,0.723-0.824,1.18
		c-0.125,0.219-0.234,0.414-0.328,0.582c-0.098,0.164-0.172,0.305-0.223,0.426c-0.055,0.137-0.109,0.258-0.164,0.363
		c-0.051,0.102-0.105,0.188-0.16,0.258c-0.168,0.25-0.32,0.535-0.457,0.848C43.207,7.742,43.09,8.09,43,8.473
		c-0.094,0.289-0.18,0.555-0.262,0.785c-0.078,0.234-0.152,0.43-0.223,0.578c-0.145,0.516-0.262,0.965-0.355,1.355
		s-0.172,0.715-0.238,0.977c-0.008,0.082-0.051,0.18-0.129,0.285c-0.074,0.109-0.176,0.219-0.297,0.332
		c-0.055,0.062-0.125,0.133-0.219,0.219s-0.098,0.16-0.266,0.309c0.012,0.027-0.102,0.09-0.086,0.117
		c-0.074,0.055-0.148,0.105-0.215,0.164c-0.094,0.09-0.191,0.172-0.293,0.246c-0.129,0.109-0.242,0.188-0.336,0.238
		c-0.098,0.047-0.184,0.074-0.262,0.074c-0.227,0-0.516-0.203-0.871-0.613c-0.352-0.41-0.527-0.715-0.527-0.914
		c0-0.281,0.328-0.871,0.988-1.766c0.656-0.898,0.984-1.637,0.984-2.227c0-0.23-0.035-0.402-0.113-0.516
		C40.207,8,40.078,7.945,39.902,7.945c-0.074,0-0.191,0.098-0.344,0.301s-0.344,0.508-0.574,0.914
		c-0.414,0.766-0.742,1.344-0.992,1.734c-0.25,0.387-0.402,0.598-0.465,0.617c-0.48,0.113-0.809,0.273-0.988,0.473
		c-0.176,0.199-0.289,0.551-0.344,1.055l-0.031,0.332c-0.156,0.336-0.309,0.648-0.453,0.926c-0.152,0.277-0.301,0.527-0.457,0.75
		c-0.031,0.086-0.074,0.152-0.129,0.195c-0.059,0.047-0.125,0.07-0.203,0.07c-0.039,0-0.066-0.012-0.086-0.035
		s-0.027-0.062-0.027-0.117c0-0.074,0.031-0.227,0.09-0.461c0.062-0.234,0.156-0.555,0.277-0.957
		c0.129-0.422,0.254-0.852,0.379-1.289c0.121-0.434,0.246-0.863,0.379-1.285c0.16-0.543,0.32-1.023,0.48-1.445
		s0.309-0.773,0.449-1.066c0.68-1.293,1.184-2.395,1.516-3.301c0.328-0.906,0.492-1.613,0.492-2.129
		c0-0.457-0.074-0.809-0.227-1.043c-0.148-0.238-0.375-0.355-0.68-0.355c-0.062,0-0.121,0.016-0.18,0.055s-0.105,0.094-0.145,0.16
		c-0.152,0.277-0.301,0.57-0.445,0.879c-0.145,0.312-0.273,0.648-0.379,1.004c-0.031,0.125-0.07,0.227-0.121,0.312
		s-0.09,0.152-0.121,0.207c-0.074,0.137-0.191,0.387-0.344,0.75s-0.34,0.836-0.562,1.418c-0.23,0.613-0.414,1.109-0.551,1.492
		s-0.23,0.66-0.273,0.84c-0.156,0.172-0.324,0.43-0.508,0.766s-0.383,0.746-0.609,1.23c-0.168,0.34-0.336,0.645-0.508,0.91
		s-0.367,0.484-0.582,0.66c-0.113,0.105-0.211,0.203-0.297,0.293c-0.082,0.09-0.148,0.172-0.195,0.246
		c-0.039,0.094-0.074,0.156-0.102,0.199c-0.031,0.043-0.062,0.074-0.094,0.102c0.023,0.016-0.035-0.016-0.016,0.008
		c-0.156,0.137-0.227,0.328-0.344,0.438c-0.133,0.129-0.238,0.242-0.316,0.344c-0.059,0.055-0.117,0.094-0.176,0.121
		s-0.105,0.051-0.145,0.074c-0.266,0.176-0.535,0.348-0.809,0.52c-0.27,0.168-0.539,0.328-0.797,0.477
		c-0.23,0.074-0.438,0.125-0.625,0.168s-0.34,0.086-0.453,0.133c-0.199-0.055-0.367-0.105-0.5-0.16s-0.238-0.105-0.316-0.16
		c-0.105-0.078-0.188-0.18-0.238-0.305c-0.055-0.129-0.082-0.277-0.082-0.453c0-0.23,0.02-0.434,0.062-0.609s0.102-0.336,0.18-0.48
		c0.051-0.078,0.148-0.18,0.285-0.305c0.141-0.125,0.312-0.27,0.516-0.43c0.453-0.355,0.809-0.637,1.074-0.844
		c0.262-0.211,0.426-0.352,0.488-0.434c0.168-0.074,0.336-0.16,0.504-0.25s0.336-0.176,0.508-0.254
		c0.25-0.145,0.438-0.301,0.566-0.473c0.125-0.176,0.188-0.371,0.188-0.594V9.25c-0.016-0.09-0.055-0.168-0.117-0.227
		c-0.066-0.062-0.152-0.09-0.262-0.09c-0.273,0-0.633,0.105-1.07,0.316c-0.441,0.215-0.742,0.426-0.902,0.633
		c-0.23,0.102-0.473,0.234-0.734,0.398c-0.258,0.164-0.52,0.359-0.781,0.59c-0.449,0.383-0.918,0.781-1.398,1.195
		c-0.113,0.09-0.234,0.176-0.363,0.25c-0.125,0.078-0.246,0.156-0.359,0.242c-0.184,0.152-0.328,0.285-0.426,0.398
		c-0.098,0.117-0.152,0.215-0.16,0.301l-0.074,0.152c0.012,0.023-0.008-0.012,0.008,0.012c-0.094,0.078-0.184,0.152-0.281,0.234
		c-0.125,0.098-0.246,0.203-0.359,0.301c-0.156,0.121-0.305,0.207-0.449,0.258s-0.289,0.074-0.426,0.074
		c-0.113,0-0.211-0.016-0.285-0.051c-0.078-0.035-0.133-0.09-0.172-0.164c-0.039-0.047-0.098-0.227-0.172-0.535
		c-0.078-0.309-0.141-0.543-0.195-0.695c-0.031-0.242-0.07-0.484-0.113-0.727c-0.047-0.242-0.098-0.484-0.152-0.719
		c-0.062-0.27-0.184-0.469-0.367-0.605c-0.184-0.133-0.41-0.199-0.676-0.199c-0.102,0-0.199,0.027-0.297,0.082
		c-0.102,0.055-0.191,0.141-0.266,0.266c-0.199,0.281-0.559,0.648-1.078,1.105c-0.52,0.453-0.871,0.91-1.074,1.195l-0.051,0.027
		l-0.07,0.082c0.012,0.008,0.016,0.016,0.027,0.027c-0.055,0.02-0.105,0.035-0.16,0.051c-0.086,0.023-0.156,0.035-0.219,0.035
		c-0.207,0-0.359-0.07-0.461-0.215c-0.098-0.141-0.148-0.352-0.148-0.633c0-0.078-0.016-0.199-0.051-0.359s-0.051-0.281-0.051-0.363
		c0-0.219-0.008-0.391-0.023-0.52s-0.035-0.219-0.059-0.273c-0.047-0.102-0.129-0.176-0.246-0.227s-0.277-0.074-0.477-0.074
		c-0.223,0-0.422,0.09-0.602,0.27s-0.344,0.457-0.488,0.824c-0.062,0.082-0.129,0.168-0.199,0.25
		c-0.074,0.086-0.137,0.156-0.191,0.219c-0.145,0.207-0.285,0.418-0.426,0.629c-0.242,0.293-0.453,0.543-0.625,0.758
		s-0.328,0.395-0.465,0.539c-0.152,0.086-0.285,0.16-0.402,0.223c-0.113,0.066-0.211,0.121-0.285,0.168
		c-0.078,0.023-0.137-0.066-0.18-0.273c-0.039-0.207-0.062-0.527-0.062-0.953c0-0.23,0.023-0.484,0.062-0.758
		c0.043-0.277,0.102-0.578,0.18-0.906c0.074-0.258,0.156-0.527,0.242-0.793c0.082-0.266,0.156-0.535,0.219-0.801
		c0.066-0.164,0.129-0.32,0.184-0.473c0.027-0.102,0.055-0.191,0.078-0.273c0.023-0.086,0.035-0.152,0.035-0.199
		c0-0.133-0.031-0.242-0.094-0.312c-0.059-0.074-0.148-0.109-0.262-0.109c-0.062,0-0.176,0.031-0.344,0.09
		C12.719,8.98,12.48,9.082,12.176,9.23c-0.188,0.234-0.359,0.477-0.523,0.727s-0.332,0.488-0.5,0.719
		c-0.207,0.23-0.398,0.457-0.578,0.688s-0.355,0.461-0.523,0.688c-0.207,0.254-0.391,0.477-0.555,0.66
		C9.352,12.875,9.223,13,9.105,13.105c0.008-0.047,0.008-0.109,0.02-0.148c0.016-0.074,0.027-0.148,0.047-0.227
		c0.012-0.078,0.02-0.145,0.02-0.195c0-0.215-0.027-0.391-0.09-0.531c-0.062-0.137-0.152-0.242-0.273-0.316
		c-0.133-0.078-0.273-0.156-0.426-0.242c-0.207,0.051-0.457,0.172-0.754,0.348c-0.293,0.184-0.641,0.418-1.039,0.719
		c-0.863,0.684-1.438,1.098-1.727,1.242c-0.285,0.152-0.496,0.27-0.637,0.355c-0.043,0-0.082-0.023-0.109-0.066
		s-0.039-0.109-0.039-0.203c0-0.148,0.082-0.348,0.254-0.582c0.168-0.238,0.426-0.516,0.781-0.824
		c0.219-0.207,0.453-0.406,0.691-0.602c0.242-0.188,0.48-0.383,0.719-0.582c0.055-0.047,0.098-0.09,0.137-0.129
		s0.07-0.07,0.09-0.102c0.324-0.199,0.598-0.371,0.824-0.523c0.223-0.148,0.414-0.262,0.566-0.348
		c0.176-0.094,0.332-0.168,0.473-0.23c0.121-0.051,0.215-0.105,0.281-0.156C8.977,9.711,9.008,9.656,9,9.586
		C8.875,9.348,8.738,9.164,8.59,9.039S8.285,8.852,8.125,8.852c-0.406,0-1.305,0.379-2.695,1.137
		c-0.047,0.074-0.172,0.184-0.379,0.328c-0.207,0.137-0.5,0.316-0.883,0.531c-0.355,0.199-0.625,0.379-0.816,0.539
		s-0.309,0.289-0.355,0.391c-0.375,0.184-0.695,0.355-0.965,0.516c-0.266,0.16-0.492,0.309-0.676,0.438
		c-0.125,0.129-0.223,0.246-0.301,0.348c-0.074,0.105-0.137,0.195-0.18,0.273c0.121,0.25,0.219,0.461,0.297,0.629
		s0.129,0.309,0.16,0.426c0.047-0.047,0.086-0.09,0.121-0.133s0.059-0.098,0.074-0.164c0.113-0.086,0.227-0.176,0.332-0.27
		c0.094-0.074,0.203-0.145,0.332-0.215l0.094,0.09c0,0.055-0.078,0.266-0.23,0.633s-0.23,0.641-0.23,0.812
		c0.07,0.156,0.137,0.301,0.195,0.438c0.117,0.246,0.211,0.395,0.289,0.449c0.074,0.055,0.246,0.078,0.504,0.078
		c0.246,0,0.598-0.117,1.062-0.348c0.461-0.234,0.754-0.449,0.879-0.641c0.113-0.043,0.27-0.133,0.469-0.27
		c0.199-0.129,0.457-0.312,0.77-0.543c0.289-0.219,0.59-0.438,0.895-0.641c0.07,0,0.117,0.012,0.145,0.039
		C7.055,13.75,7.07,13.789,7.07,13.84c0,0.301-0.043,0.719-0.133,1.246c-0.09,0.531-0.219,1.172-0.395,1.922
		c-0.141,0.609-0.277,1.168-0.414,1.691c-0.137,0.516-0.125,0.98-0.273,1.402l-0.07,0.441c-0.176,0.477-0.316,0.871-0.418,1.195
		c-0.105,0.32-0.168,0.57-0.191,0.746c-0.016,0.137-0.035,0.285-0.055,0.434c-0.039,0.117-0.078,0.25-0.117,0.406
		c0,0.09,0.035,0.156,0.102,0.195c0.07,0.035,0.18,0.055,0.324,0.055c0.184,0,0.34-0.043,0.477-0.125
		c0.133-0.086,0.23-0.207,0.293-0.371c0.168-0.426,0.316-0.797,0.445-1.117c0.129-0.316,0.23-0.586,0.297-0.809
		c0.086-0.27,0.156-0.5,0.207-0.703c0.055-0.207,0.094-0.379,0.117-0.523c0.129-0.438,0.258-0.871,0.383-1.305
		c0.125-0.43,0.262-0.871,0.398-1.312c0.176-0.543,0.359-1.023,0.551-1.438c0.191-0.41,0.387-0.746,0.594-1.008
		c0.023-0.09,0.066-0.176,0.121-0.258c0.059-0.078,0.066-0.25,0.156-0.309c-0.012-0.035,0.039,0.031,0.023-0.008
		c0.047-0.059,0.102-0.129,0.133-0.176c0.055-0.082,0.094-0.148,0.117-0.203l0.652-0.676l0.07-0.035
		c0.051,0,0.094,0.059,0.121,0.172c0.023,0.117,0.047,0.285,0.062,0.504c-0.016,0.047-0.012,0.184,0.012,0.406
		c0.02,0.219,0.066,0.531,0.137,0.926c0.062,0.414,0.199,0.727,0.414,0.938s0.496,0.312,0.848,0.312c0.238,0,0.492-0.07,0.762-0.211
		c0.273-0.141,0.543-0.371,0.812-0.68c0.215-0.242,0.422-0.48,0.629-0.719c0.207-0.242,0.414-0.488,0.621-0.738
		c0.098-0.109,0.191-0.215,0.281-0.324c0.086-0.109,0.168-0.199,0.234-0.277c0.074,0.094,0.141,0.188,0.191,0.277
		c0.047,0.09,0.082,0.184,0.094,0.277c0.117,0.387,0.297,0.684,0.539,0.883c0.246,0.199,0.562,0.297,0.945,0.297
		c0.145,0,0.363-0.07,0.66-0.211c0.293-0.145,0.617-0.434,1.078-0.707l0.016-0.004c0.258-0.285,0.488-0.508,0.676-0.656
		c0.207-0.164,0.371-0.246,0.492-0.246c0.047,0,0.102,0.043,0.172,0.133c0.07,0.086,0.148,0.219,0.242,0.395
		c0.074,0.117,0.145,0.215,0.207,0.297c0.059,0.086,0.105,0.16,0.137,0.219c0.25,0.738,0.48,1.184,0.688,1.344
		s0.656,0.242,1.355,0.242c0.113,0,0.281-0.055,0.504-0.168c0.223-0.109,0.492-0.281,0.805-0.512
		c0.281-0.207,0.523-0.387,0.727-0.543c0.133-0.102,0.242-0.195,0.336-0.281c-0.008,0.043-0.016,0.09-0.035,0.148
		c-0.039,0.137-0.055,0.238-0.055,0.301c0,0.219,0.012,0.41,0.039,0.559c0.027,0.152,0.074,0.285,0.145,0.395
		c0.051,0.098,0.137,0.203,0.25,0.312c0.117,0.109,0.258,0.23,0.426,0.352c0.16,0.113,0.355,0.25,0.586,0.398
		c0.074,0.039,0.172,0.07,0.285,0.094s0.246,0.035,0.391,0.035c0.648,0,1.23-0.098,1.738-0.293c0.512-0.195,0.953-0.484,1.34-0.867
		c0.082-0.082,0.184-0.176,0.309-0.277c0.375-0.152,0.707-0.348,0.996-0.586c0.293-0.246,0.457-0.465,0.738-0.695
		c0-0.008,0.105-0.07,0.082-0.133c0.066-0.098,0.125-0.18,0.148-0.219c0.035-0.059,0.066-0.098,0.098-0.121
		c0.207-0.246,0.387-0.453,0.539-0.621c0.152-0.164,0.277-0.312,0.379-0.434l0.078,0.113c0,0.121-0.016,0.27-0.043,0.434
		c-0.031,0.164-0.074,0.352-0.129,0.566c-0.137,0.449-0.238,0.883-0.305,1.297c-0.062,0.41-0.094,0.805-0.094,1.168
		c0,0.359,0.074,0.629,0.227,0.805c0.156,0.176,0.383,0.262,0.691,0.262c0.199,0,0.363-0.07,0.5-0.211
		c0.133-0.141,0.254-0.289,0.359-0.441c0.109-0.098,0.203-0.184,0.285-0.266c0.086-0.074,0.148-0.137,0.188-0.195
		c0.137-0.168,0.27-0.328,0.406-0.484c0.133-0.156,0.27-0.32,0.406-0.488c0.215-0.258,0.461-0.52,0.746-0.781
		c0.039,0,0.332,0.238,0.879,0.707s0.934,0.703,1.164,0.703c0.223,0,0.445-0.047,0.664-0.152c0.223-0.102,0.445-0.262,0.668-0.477
		c0.199-0.168,0.387-0.34,0.566-0.516s0.277-0.34,0.477-0.516l0.059-0.094c0.016-0.016,0.039-0.035,0.055-0.043
		c0.039-0.039,0.066-0.074,0.09-0.105c0.047,0,0.078,0.012,0.098,0.027c0.02,0.02,0.027,0.047,0.027,0.086
		c-0.031,0.117-0.055,0.223-0.078,0.324c-0.008,0.047-0.016,0.094-0.023,0.148s-0.012,0.113-0.012,0.184
		c0,0.219,0.027,0.492,0.074,0.809c0.051,0.316,0.121,0.691,0.211,1.117c0.031,0.129,0.129,0.23,0.293,0.293
		c0.164,0.066,0.395,0.098,0.684,0.098c0.141,0,0.305-0.074,0.492-0.227c0.191-0.156,0.414-0.383,0.668-0.691
		c0.215-0.273,0.398-0.527,0.551-0.758c0.152-0.227,0.27-0.43,0.355-0.605c0.129-0.18,0.262-0.348,0.398-0.504
		c0.133-0.164,0.262-0.32,0.383-0.473h0.07c0.051-0.008,0.207,0.207,0.465,0.648c0.254,0.438,0.617,0.66,1.082,0.66
		c0.305,0,0.574-0.02,0.805-0.055c0.23-0.031,0.406-0.086,0.527-0.152c0.172-0.109,0.348-0.219,0.527-0.324
		c0.008-0.008,0.02-0.012,0.027-0.02c0.172-0.105,0.195-0.16,0.332-0.262c0.016-0.012,0.031-0.02,0.051-0.035
		c-0.016-0.035,0.145-0.133,0.125-0.172c0.023-0.031,0.059-0.066,0.07-0.094c0.031-0.062,0.059-0.109,0.082-0.137
		c0.266-0.219,0.473-0.379,0.621-0.496c0.141-0.113,0.234-0.172,0.273-0.172c0.062,0,0.109,0.016,0.145,0.055
		c0.035,0.031,0.051,0.078,0.051,0.129c0,0.055-0.043,0.234-0.125,0.535c-0.086,0.301-0.129,0.547-0.129,0.727
		c0,0.453,0.176,0.859,0.527,1.23c0.352,0.367,0.746,0.547,1.184,0.547c0.07,0,0.16-0.012,0.27-0.043s0.188-0.047,0.223-0.047
		c0.133,0,0.273-0.023,0.43-0.074c0.16-0.047,0.332-0.121,0.523-0.211c0.328-0.137,0.629-0.312,0.902-0.523
		c0.27-0.211,0.5-0.441,0.695-0.691c0.066,0.148,0.16,0.27,0.273,0.352c0.113,0.086,0.262,0.125,0.438,0.125
		c0.152,0,0.305-0.027,0.461-0.094c0.16-0.066,0.324-0.172,0.5-0.316c0.148-0.105,0.785-0.766,0.77-0.805
		c0.02-0.031,0.055-0.062,0.066-0.09c0.031-0.062,0.055-0.109,0.07-0.137c0.129-0.125,0.246-0.234,0.348-0.332
		c0.105-0.102,0.195-0.18,0.27-0.234c0.047-0.02,0.137-0.098,0.266-0.227c0.129-0.133,0.301-0.312,0.516-0.539
		c0.176-0.199,0.328-0.348,0.453-0.438c0.125-0.094,0.227-0.137,0.305-0.137c0.086,0,0.145,0.016,0.184,0.043
		c0.039,0.035,0.055,0.078,0.055,0.129s-0.008,0.117-0.02,0.191c-0.016,0.07-0.043,0.156-0.078,0.258
		c-0.039,0.105-0.074,0.191-0.098,0.258c-0.027,0.066-0.039,0.117-0.039,0.156c-0.191,0.641-0.359,1.203-0.504,1.684
		c-0.145,0.484-0.277,0.883-0.391,1.203c0.023,0.215,0.047,0.43,0.074,0.637c0.027,0.211,0.195,0.32,0.5,0.32
		c0.152,0,0.293-0.02,0.418-0.055c0.125-0.031,0.238-0.094,0.34-0.18c0.098-0.09,0.199-0.184,0.297-0.277
		c0.102-0.098,0.199-0.195,0.297-0.293c0.391-0.398,0.715-0.742,0.977-1.031c0.258-0.293,0.441-0.531,0.547-0.715
		c0.055-0.098,0.16-0.188,0.312-0.266c0.152-0.074,0.398-0.266,0.742-0.57c0.16-0.148,0.312-0.266,0.453-0.359
		c0.145-0.09,0.285-0.16,0.434-0.203l0.102,0.031c0.168,0.223,0.316,0.418,0.441,0.582c0.129,0.164,0.238,0.297,0.34,0.395
		c0.121,0.246,0.227,0.449,0.32,0.613s0.168,0.281,0.23,0.34c0.113,0.152,0.25,0.27,0.414,0.348c0.16,0.074,0.328,0.109,0.504,0.109
		c0.152,0,0.305-0.027,0.457-0.094c0.156-0.066,0.32-0.18,0.496-0.34c0.129-0.109,0.262-0.215,0.402-0.332
		c0.137-0.117,0.082-0.141,0.211-0.246l0.148-0.18c0.059-0.062,0.113-0.129,0.164-0.164c0.074-0.059,0.145-0.086,0.207-0.086
		c0.074,0,0.145,0.039,0.207,0.121c0.059,0.078,0.125,0.203,0.195,0.371c0.082,0.207,0.164,0.387,0.238,0.531
		c0.078,0.152,0.152,0.266,0.23,0.34c0.145,0.16,0.328,0.281,0.543,0.367c0.219,0.082,0.469,0.125,0.754,0.125
		c0.215,0,0.398-0.016,0.559-0.051c0.152-0.035,0.297-0.086,0.418-0.168c0.297,0,0.625-0.109,0.98-0.324
		c0.355-0.219,0.625-0.43,1.062-0.859c-0.008-0.023,0.105-0.16,0.098-0.184c0.168-0.141,0.332-0.27,0.461-0.375
		c0.152-0.121,0.273-0.215,0.355-0.273l0.047-0.023c0.078,0,0.133,0.055,0.168,0.172c0.031,0.113,0.051,0.285,0.051,0.516
		c-0.023,0.16,0.008,0.207-0.023,0.336c0.047,0.141,0.023,0.348,0.059,0.422c-0.027,0.094-0.043,0.172-0.055,0.238
		c-0.012,0.07-0.016,0.129-0.016,0.176c0,0.242,0.066,0.426,0.195,0.543c0.129,0.121,0.32,0.18,0.574,0.18
		c0.344,0,0.375-0.055,0.637-0.211c0.266-0.156,0.754-0.426,0.922-0.754c0.254-0.117,0.508-0.281,0.77-0.5
		c0.262-0.215,0.516-0.492,0.77-0.82c0.191-0.184,0.367-0.344,0.535-0.48c0.164-0.141,0.312-0.242,0.453-0.312
		c0.027,0.094,0.047,0.164,0.051,0.211c0.004,0.051,0.012,0.094,0.027,0.121c-0.047,0.34-0.098,0.652-0.148,0.938
		c-0.055,0.285-0.121,0.543-0.195,0.766c-0.168,0.379-0.312,0.711-0.43,0.996c-0.121,0.285-0.227,0.523-0.328,0.723
		c-0.023,0.082-0.051,0.168-0.086,0.25c-0.035,0.086-0.066,0.16-0.098,0.219c-0.184,0.199-0.406,0.441-0.664,0.73
		c-0.262,0.289-0.547,0.613-0.863,0.984c-0.418,0.492-0.746,0.902-0.98,1.219c-0.23,0.316-0.375,0.547-0.43,0.684
		c-0.078,0.07-0.141,0.129-0.199,0.184s-0.102,0.098-0.133,0.137c0,0.039-0.051,0.074-0.078,0.172l-0.309,0.332
		c-0.121,0.223-0.254,0.438-0.402,0.645c-0.098,0.133-0.168,0.254-0.203,0.367c-0.039,0.113-0.059,0.211-0.059,0.285
		c0,0.148,0.039,0.254,0.113,0.324c0.078,0.07,0.199,0.102,0.367,0.102c0.453,0,0.914-0.168,1.391-0.504
		c0.473-0.34,0.973-0.852,1.5-1.551c0.152-0.211,0.402-0.586,0.742-1.113s0.766-1.211,1.277-2.055
		c0.344-0.555,0.809-1.121,1.395-1.691s1.285-1.145,2.102-1.727c0.148-0.098,0.266-0.195,0.352-0.281
		c0.09-0.09,0.164-0.164,0.223-0.223L83.809,13.352z"/>
</g>
</svg>
